<!-- Generated by IcoMoon.io -->
<svg version="1.1" xmlns="http://www.w3.org/2000/svg" width="32" height="32" viewBox="0 0 32 32">
<title>activities</title>
<path fill="#f22876" d="M16 0.618c8.482 0 15.382 6.899 15.382 15.382s-6.899 15.382-15.382 15.382c-8.482 0-15.382-6.899-15.382-15.382s6.899-15.382 15.382-15.382zM16 0c-8.838 0-16 7.162-16 16s7.162 16 16 16c8.838 0 16-7.162 16-16s-7.162-16-16-16z"></path>
<path fill="#f22876" d="M14.72 7.354h-7.307c-0.195 0-0.356 0.158-0.356 0.356 0 8.046 0 10.882 3.077 12.165v3.652c-0.807 0.065-2.693 0.374-2.693 1.877 0 0.195 0.158 0.356 0.356 0.356h6.54c0.195 0 0.356-0.158 0.356-0.356 0-1.503-1.886-1.812-2.693-1.877v-3.652c3.077-1.283 3.077-4.122 3.077-12.165 0-0.198-0.158-0.356-0.356-0.356zM7.771 10.431c-0.006-0.73-0.006-1.515-0.006-2.369h6.599c0 0.854 0 1.636-0.006 2.369h-6.587zM8.235 25.048c0.417-0.801 2.233-0.829 2.254-0.829 0.195 0 0.353-0.158 0.353-0.353v-4.233c0-0.148-0.093-0.278-0.229-0.331-2.384-0.894-2.774-2.904-2.836-8.161h6.577c-0.062 5.257-0.448 7.267-2.836 8.161-0.139 0.053-0.229 0.182-0.229 0.331v4.233c0 0.195 0.158 0.353 0.356 0.353 0.022 0 1.837 0.025 2.254 0.829h-5.665z"></path>
<path fill="#f22876" d="M8.949 13.093c-0.212 0-0.383 0.172-0.383 0.383s0.172 0.383 0.383 0.383v0c0.212 0 0.383-0.172 0.383-0.383s-0.172-0.383-0.383-0.383v0zM12.796 15.017c-0.212 0-0.383 0.172-0.383 0.383s0.172 0.383 0.383 0.383c0.212 0 0.383-0.172 0.383-0.383v0c0.003-0.21-0.17-0.383-0.383-0.383zM9.336 15.787c-0.212 0-0.383 0.172-0.383 0.383s0.172 0.383 0.383 0.383v0c0.212 0 0.383-0.172 0.383-0.383s-0.172-0.383-0.383-0.383v0zM12.796 12.323c-0.212 0-0.383 0.172-0.383 0.383s0.172 0.383 0.383 0.383c0.212 0 0.383-0.172 0.383-0.383v0c0.003-0.21-0.17-0.383-0.383-0.383zM10.873 14.247c-0.212 0-0.383 0.172-0.383 0.383s0.172 0.383 0.383 0.383v0c0.212 0 0.383-0.172 0.383-0.383s-0.172-0.383-0.383-0.383v0zM10.489 11.94c-0.212 0-0.383 0.172-0.383 0.383s0.172 0.383 0.383 0.383v0c0.212 0 0.383-0.172 0.383-0.383s-0.172-0.383-0.383-0.383v0zM11.643 16.94c-0.212 0-0.383 0.172-0.383 0.383s0.172 0.383 0.383 0.383v0c0.212 0 0.383-0.172 0.383-0.383s-0.172-0.383-0.383-0.383v0zM25.107 7.354h-7.31c-0.195 0-0.356 0.158-0.356 0.356 0 8.046 0 10.882 3.077 12.165v3.652c-0.807 0.065-2.693 0.374-2.693 1.877 0 0.195 0.158 0.356 0.356 0.356h6.54c0.195 0 0.356-0.158 0.356-0.356 0-1.503-1.886-1.812-2.693-1.877v-3.652c3.077-1.283 3.077-4.122 3.077-12.165 0.003-0.198-0.158-0.356-0.353-0.356zM18.158 10.431c-0.006-0.73-0.006-1.515-0.006-2.369h6.602c0 0.854 0 1.636-0.006 2.369h-6.59zM18.622 25.048c0.417-0.801 2.233-0.829 2.254-0.829 0.195 0 0.353-0.158 0.353-0.353v-4.233c0-0.148-0.093-0.278-0.229-0.331-2.387-0.894-2.774-2.904-2.836-8.161h6.578c-0.062 5.257-0.448 7.267-2.836 8.161-0.139 0.053-0.229 0.182-0.229 0.331v4.233c0 0.195 0.158 0.353 0.356 0.353 0.022 0 1.837 0.025 2.254 0.829h-5.665z"></path>
<path fill="#f22876" d="M19.337 13.093c-0.212 0-0.383 0.172-0.383 0.383s0.172 0.383 0.383 0.383v0c0.212 0 0.383-0.172 0.383-0.383s-0.172-0.383-0.383-0.383v0zM23.184 15.017c-0.212 0-0.383 0.172-0.383 0.383s0.172 0.383 0.383 0.383c0.212 0 0.383-0.172 0.383-0.383v0c0.003-0.21-0.17-0.383-0.383-0.383zM19.72 15.787c-0.212 0-0.383 0.172-0.383 0.383s0.172 0.383 0.383 0.383c0.212 0 0.383-0.172 0.383-0.383v0c0.003-0.21-0.17-0.383-0.383-0.383zM23.184 12.323c-0.212 0-0.383 0.172-0.383 0.383s0.172 0.383 0.383 0.383c0.212 0 0.383-0.172 0.383-0.383v0c0.003-0.21-0.17-0.383-0.383-0.383zM21.26 14.247c-0.212 0-0.383 0.172-0.383 0.383s0.172 0.383 0.383 0.383v0c0.212 0 0.383-0.172 0.383-0.383s-0.172-0.383-0.383-0.383v0zM20.877 11.94c-0.212 0-0.383 0.172-0.383 0.383s0.172 0.383 0.383 0.383v0c0.212 0 0.383-0.172 0.383-0.383s-0.172-0.383-0.383-0.383v0zM22.030 16.94c-0.212 0-0.383 0.172-0.383 0.383s0.172 0.383 0.383 0.383v0c0.212 0 0.383-0.172 0.383-0.383s-0.172-0.383-0.383-0.383v0z"></path>
</svg>
