<!-- Generated by IcoMoon.io -->
<svg version="1.1" xmlns="http://www.w3.org/2000/svg" width="32" height="32" viewBox="0 0 32 32">
<title>choice</title>
<path fill="#f22876" d="M16 0.619c8.482 0 15.381 6.899 15.381 15.381s-6.899 15.381-15.381 15.381c-8.483 0-15.381-6.899-15.381-15.381s6.899-15.381 15.381-15.381zM16-0c-8.838 0-16 7.162-16 16s7.162 16 16 16 16-7.161 16-16-7.162-16-16-16z"></path>
<path fill="#f22876" d="M23.233 10.004h-2.286c-0 0-0.001 0-0.001 0-0.157 0-0.283 0.127-0.283 0.283 0 0 0 0.001 0 0.001v-0c0 0 0 0.001 0 0.001 0 0.157 0.127 0.283 0.283 0.283 0 0 0.001 0 0.001 0h2.286c0.683 0 1.237 0.554 1.237 1.237 0 0 0 0 0 0v-0 11.42c0 0 0 0 0 0 0 0.683-0.554 1.237-1.237 1.237h-14.466c-0.683-0.001-1.236-0.554-1.237-1.237v-11.417c0.001-0.683 0.554-1.236 1.237-1.237h2.285c0 0 0.001 0 0.001 0 0.157 0 0.283-0.127 0.283-0.283 0-0 0-0.001 0-0.001v0c0-0 0-0.001 0-0.001 0-0.157-0.127-0.283-0.283-0.283-0 0-0.001 0-0.001 0h-2.285c-0.996 0-1.809 0.81-1.809 1.809v11.42c0 0.996 0.81 1.809 1.809 1.809h14.466c0.996 0 1.809-0.81 1.809-1.809v-11.423c-0.001-0.998-0.81-1.808-1.809-1.809h-0z"></path>
<path fill="#f22876" d="M17.521 6.958h-3.046c-0.539 0-1.049 0.51-1.049 1.049v1.237h-0.856c-0.539 0-1.049 0.51-1.049 1.048v0.761c0 0.538 0.51 1.048 1.049 1.048h6.853c0.538 0 1.048-0.51 1.048-1.049v-0.761c0-0.538-0.507-1.048-1.048-1.048h-0.857v-1.237c0.003-0.538-0.507-1.048-1.046-1.048zM12.574 11.528c-0.223 0-0.476-0.254-0.476-0.476v-0.761c0-0.223 0.254-0.476 0.476-0.476h1.141c0 0 0.001 0 0.001 0 0.157 0 0.283-0.127 0.283-0.283 0-0 0-0.001 0-0.001v0-1.521c0-0.223 0.254-0.476 0.476-0.476h3.046c0.223 0 0.476 0.253 0.476 0.476v1.521c0 0 0 0.001 0 0.001 0 0.157 0.127 0.283 0.283 0.283 0 0 0.001 0 0.001 0h1.141c0.223 0 0.476 0.254 0.476 0.476v0.761c0 0.223-0.253 0.476-0.476 0.476h-6.85z"></path>
<path fill="#f22876" d="M16.381 8.482h-0.761c-0 0-0.001 0-0.001 0-0.157 0-0.283 0.127-0.283 0.283 0 0 0 0.001 0 0.001v-0c0 0 0 0.001 0 0.001 0 0.157 0.127 0.283 0.283 0.283 0 0 0.001 0 0.001 0h0.761c0 0 0.001 0 0.001 0 0.157 0 0.283-0.127 0.283-0.283 0-0 0-0.001 0-0.001v0c0-0 0-0.001 0-0.001 0-0.157-0.127-0.283-0.283-0.283-0 0-0.001 0-0.001 0h0zM11.433 13.43c-0.111 0.001-0.208 0.064-0.256 0.156l-0.001 0.002-0.507 1.011-0.504-1.011c-0.048-0.094-0.145-0.158-0.257-0.158-0 0-0 0-0 0v0c-0.001 0-0.001 0-0.002 0-0.046 0-0.089 0.012-0.126 0.032l0.001-0.001c-0.094 0.047-0.158 0.143-0.158 0.254 0 0.047 0.011 0.092 0.032 0.131l-0.001-0.002 0.761 1.521c0.049 0.096 0.148 0.158 0.254 0.158 0.111-0.001 0.208-0.064 0.256-0.156l0.001-0.002 0.761-1.521c0.019-0.037 0.030-0.081 0.030-0.128 0-0.157-0.127-0.285-0.284-0.287h-0zM22.092 14.571h-9.138c-0 0-0.001 0-0.001 0-0.157 0-0.283 0.127-0.283 0.283 0 0 0 0.001 0 0.001v-0c0 0 0 0.001 0 0.001 0 0.157 0.127 0.283 0.283 0.283 0 0 0.001 0 0.001 0h9.138c0 0 0.001 0 0.001 0 0.157 0 0.283-0.127 0.283-0.283 0-0 0-0.001 0-0.001v0c0-0 0-0.001 0-0.001 0-0.157-0.127-0.283-0.283-0.283-0 0-0.001 0-0.001 0h0zM11.433 16.857c-0.111 0.001-0.208 0.064-0.256 0.156l-0.001 0.002-0.507 1.011-0.504-1.011c-0.049-0.094-0.145-0.158-0.257-0.158v0c-0.001 0-0.001 0-0.002 0-0.046 0-0.089 0.012-0.126 0.032l0.001-0.001c-0.094 0.047-0.158 0.143-0.158 0.254 0 0.047 0.011 0.092 0.032 0.131l-0.001-0.002 0.761 1.521c0.049 0.096 0.148 0.158 0.254 0.158 0.111-0.001 0.208-0.064 0.256-0.156l0.001-0.002 0.761-1.521c0.019-0.037 0.030-0.081 0.030-0.128 0-0.157-0.127-0.285-0.284-0.287h-0zM22.092 17.998h-9.138c-0 0-0.001 0-0.001 0-0.157 0-0.283 0.127-0.283 0.283 0 0 0 0.001 0 0.001v-0c0 0 0 0.001 0 0.001 0 0.157 0.127 0.283 0.283 0.283 0 0 0.001 0 0.001 0h9.138c0 0 0.001 0 0.001 0 0.157 0 0.283-0.127 0.283-0.283 0-0 0-0.001 0-0.001v0c-0.001-0.157-0.128-0.284-0.284-0.285h-0zM11.433 20.283c-0.111 0.001-0.208 0.064-0.256 0.156l-0.001 0.002-0.507 1.011-0.504-1.011c-0.048-0.094-0.145-0.158-0.257-0.158-0 0-0 0-0 0v0c-0.001 0-0.001 0-0.002 0-0.046 0-0.089 0.012-0.126 0.032l0.001-0.001c-0.094 0.047-0.158 0.143-0.158 0.254 0 0.047 0.011 0.092 0.032 0.131l-0.001-0.002 0.761 1.521c0.049 0.096 0.148 0.158 0.254 0.158 0.111-0.001 0.208-0.064 0.256-0.156l0.001-0.002 0.761-1.521c0.019-0.037 0.030-0.081 0.030-0.128 0-0.157-0.127-0.285-0.284-0.287h-0zM22.092 21.424h-9.138c-0 0-0.001 0-0.001 0-0.157 0-0.283 0.127-0.283 0.283 0 0 0 0.001 0 0.001v-0c0 0 0 0.001 0 0.001 0 0.157 0.127 0.283 0.283 0.283 0 0 0.001 0 0.001 0h9.138c0 0 0.001 0 0.001 0 0.157 0 0.283-0.127 0.283-0.283 0-0 0-0.001 0-0.001v0c-0.001-0.157-0.128-0.284-0.284-0.285h-0z"></path>
</svg>
