<!-- Generated by IcoMoon.io -->
<svg version="1.1" xmlns="http://www.w3.org/2000/svg" width="32" height="32" viewBox="0 0 32 32">
<title>fans-only</title>
<path fill="#f22876" d="M23.103 8.492c-1.191 0-2.421 0.547-3.061 1.704-0.64-1.157-1.874-1.704-3.065-1.704-0.195 0-0.39 0.015-0.578 0.043-1.552 0.238-2.792 1.967-2.978 3.433-0.009 0.068-0.015 0.136-0.022 0.204-0.015 0.186 0.121 0.349 0.306 0.365h0.028c0.176 0 0.322-0.133 0.337-0.309 0.003-0.059 0.009-0.117 0.019-0.176 0.148-1.197 1.175-2.663 2.409-2.851 0.155-0.025 0.315-0.034 0.473-0.034 1.175 0 2.393 0.646 2.74 2.029 0.037 0.148 0.173 0.257 0.325 0.257 0.155 0 0.291-0.105 0.328-0.257 0.346-1.382 1.565-2.029 2.74-2.029 0.161 0 0.319 0.012 0.473 0.037 1.234 0.189 2.261 1.654 2.409 2.851 0.408 3.275-3.185 6.67-5.95 8.108-0.272-0.142-0.56-0.309-0.854-0.495-0.056-0.034-0.117-0.053-0.179-0.053-0.111 0-0.22 0.056-0.285 0.158-0.099 0.158-0.053 0.365 0.105 0.464 0.365 0.232 0.724 0.433 1.064 0.603 0.046 0.025 0.099 0.034 0.148 0.034 0.053 0 0.102-0.012 0.151-0.034 2.959-1.481 6.927-5.211 6.469-8.872-0.182-1.466-1.422-3.194-2.978-3.433-0.186-0.031-0.38-0.043-0.575-0.043zM15.023 12.979c-1.191 0-2.424 0.547-3.065 1.704-0.64-1.157-1.874-1.704-3.065-1.704-0.195 0-0.387 0.015-0.578 0.043-1.552 0.238-2.792 1.967-2.978 3.433-0.458 3.661 3.507 7.391 6.469 8.872 0.046 0.025 0.099 0.034 0.148 0.034 0.053 0 0.102-0.012 0.152-0.034 2.959-1.481 6.927-5.211 6.469-8.872-0.182-1.466-1.422-3.194-2.978-3.433-0.186-0.028-0.38-0.043-0.575-0.043zM11.958 24.649c-2.768-1.438-6.361-4.837-5.95-8.108 0.148-1.197 1.175-2.663 2.409-2.851 0.155-0.025 0.315-0.037 0.476-0.037 1.172 0 2.39 0.646 2.737 2.029 0.037 0.148 0.173 0.257 0.325 0.257 0.155 0 0.291-0.105 0.328-0.257 0.346-1.382 1.568-2.029 2.74-2.029 0.158 0 0.319 0.012 0.473 0.034 1.234 0.189 2.261 1.654 2.409 2.851 0.414 3.275-3.179 6.673-5.947 8.111z"></path>
<path fill="#f22876" d="M16 0.618c8.482 0 15.382 6.899 15.382 15.382s-6.899 15.382-15.382 15.382c-8.482 0-15.382-6.899-15.382-15.382s6.899-15.382 15.382-15.382zM16 0c-8.838 0-16 7.162-16 16s7.162 16 16 16c8.838 0 16-7.162 16-16s-7.162-16-16-16z"></path>
</svg>
