<!-- Generated by IcoMoon.io -->
<svg version="1.1" xmlns="http://www.w3.org/2000/svg" width="32" height="32" viewBox="0 0 32 32">
<title>like</title>
<path fill="#f22876" d="M18.211 4.277c-1.41 0-1.583 1.426-1.722 2.57-0.102 0.832-0.207 1.688-0.687 1.964-2.715 1.552-3.807 3.733-4.104 4.444h-0.668c-0.186 0-0.337 0.152-0.337 0.337s0.152 0.337 0.337 0.337h0.897c0.145 0 0.272-0.093 0.319-0.229 0.009-0.025 0.906-2.601 3.887-4.305 0.773-0.442 0.9-1.472 1.024-2.468 0.164-1.345 0.322-1.979 1.055-1.979 0.535 0 1.055 0.43 1.392 1.147 0.55 1.175 0.532 3.046-0.751 4.586-1.175 1.41-0.51 2.582-0.479 2.632 0.062 0.102 0.17 0.167 0.291 0.167h4.042c1.627 0 2.483 0.782 2.61 1.555 0.074 0.445-0.111 0.81-0.47 0.931-0.135 0.045-0.231 0.171-0.231 0.319s0.096 0.273 0.228 0.318l0.002 0.001c0.575 0.192 0.779 0.795 0.779 1.252s-0.204 1.061-0.779 1.252c-0.135 0.045-0.231 0.171-0.231 0.319s0.096 0.273 0.228 0.318l0.002 0.001c0.479 0.158 0.612 0.733 0.532 1.228-0.102 0.625-0.55 1.259-1.324 1.259-0.148 0-0.278 0.096-0.322 0.238s0.012 0.297 0.136 0.377c0.399 0.266 0.56 0.631 0.448 1.008-0.155 0.516-0.866 1.070-2.056 1.070h-5.845c-3.683 0-4.138-2.737-4.156-2.854-0.025-0.167-0.167-0.288-0.334-0.288h-0.897c-0.186 0-0.337 0.151-0.337 0.337s0.152 0.337 0.337 0.337h0.634c0.238 0.829 1.218 3.142 4.753 3.142h5.835c1.543 0 2.468-0.776 2.7-1.546 0.136-0.451 0.059-0.897-0.204-1.274 0.736-0.288 1.175-1.011 1.286-1.695 0.108-0.668-0.062-1.265-0.436-1.639 0.433-0.359 0.696-0.931 0.696-1.59 0-0.656-0.26-1.231-0.696-1.59 0.319-0.325 0.464-0.807 0.377-1.339-0.17-1.058-1.249-2.121-3.272-2.121h-3.816c-0.087-0.288-0.158-0.925 0.482-1.692 1.571-1.886 1.438-4.036 0.844-5.3-0.451-0.965-1.2-1.537-2.001-1.537zM10.131 12.806h-4.49c-0.186 0-0.337 0.152-0.337 0.337v9.429c0 0.186 0.152 0.337 0.337 0.337h4.49c0.186 0 0.337-0.151 0.337-0.337v-9.429c0-0.186-0.152-0.337-0.337-0.337zM5.978 22.231v-8.751h3.816v8.755l-3.816-0.003z"></path>
<path fill="#f22876" d="M16 0.618c8.482 0 15.382 6.899 15.382 15.382s-6.899 15.382-15.382 15.382c-8.482 0-15.382-6.899-15.382-15.382s6.899-15.382 15.382-15.382zM16 0c-8.838 0-16 7.162-16 16s7.162 16 16 16c8.838 0 16-7.162 16-16s-7.162-16-16-16z"></path>
</svg>
