<!-- Generated by IcoMoon.io -->
<svg version="1.1" xmlns="http://www.w3.org/2000/svg" width="32" height="32" viewBox="0 0 32 32">
<title>people</title>
<path d="M16 0.618c8.482 0 15.382 6.899 15.382 15.382s-6.899 15.382-15.382 15.382c-8.482 0-15.382-6.899-15.382-15.382s6.899-15.382 15.382-15.382zM16 0c-8.838 0-16 7.162-16 16s7.162 16 16 16c8.838 0 16-7.162 16-16s-7.162-16-16-16z"></path>
<path d="M19.346 23.855h-6.636c-0.17 0-0.309-0.139-0.309-0.309v-2.545c0-1.685 1.627-3.055 3.627-3.055s3.627 1.37 3.627 3.055v2.545c0 0.17-0.139 0.309-0.309 0.309zM13.019 23.236h6.018v-2.236c0-1.342-1.348-2.437-3.009-2.437s-3.009 1.095-3.009 2.437v2.236z"></path>
<path d="M16.028 18.477c-1.311 0-2.378-1.067-2.378-2.378s1.067-2.378 2.378-2.378 2.378 1.067 2.378 2.378-1.067 2.378-2.378 2.378zM16.028 14.339c-0.971 0-1.76 0.789-1.76 1.76s0.789 1.76 1.76 1.76c0.971 0 1.76-0.789 1.76-1.76s-0.789-1.76-1.76-1.76zM10.857 23.855h-4.496c-0.17 0-0.309-0.139-0.309-0.309v-2.545c0-1.685 1.627-3.055 3.627-3.055 0.823 0 1.596 0.226 2.242 0.652 0.142 0.093 0.182 0.285 0.087 0.43-0.096 0.142-0.288 0.182-0.43 0.087-0.535-0.353-1.209-0.547-1.899-0.547-1.658 0-3.009 1.095-3.009 2.437v2.236h4.184c0.17 0 0.309 0.139 0.309 0.309s-0.136 0.306-0.306 0.306z"></path>
<path d="M9.679 18.477c-1.311 0-2.378-1.067-2.378-2.378s1.067-2.378 2.378-2.378 2.378 1.067 2.378 2.378-1.067 2.378-2.378 2.378zM9.679 14.339c-0.971 0-1.76 0.789-1.76 1.76s0.789 1.76 1.76 1.76c0.971 0 1.76-0.789 1.76-1.76s-0.789-1.76-1.76-1.76zM25.639 23.855h-4.496c-0.17 0-0.309-0.139-0.309-0.309s0.139-0.309 0.309-0.309h4.184v-2.236c0-1.342-1.348-2.437-3.009-2.437-0.69 0-1.364 0.195-1.899 0.547-0.048 0.032-0.108 0.052-0.172 0.052-0.171 0-0.31-0.139-0.31-0.31 0-0.107 0.054-0.202 0.137-0.258l0.001-0.001c0.643-0.427 1.419-0.652 2.242-0.652 2.001 0 3.627 1.37 3.627 3.055v2.545c0 0.002 0 0.004 0 0.006 0 0.169-0.137 0.306-0.306 0.306-0 0-0 0-0 0v0z"></path>
<path d="M22.321 18.477c-1.311 0-2.378-1.067-2.378-2.378s1.067-2.378 2.378-2.378 2.378 1.067 2.378 2.378-1.067 2.378-2.378 2.378zM22.321 14.339c-0.971 0-1.76 0.789-1.76 1.76s0.789 1.76 1.76 1.76c0.971 0 1.76-0.789 1.76-1.76s-0.789-1.76-1.76-1.76zM16.315 13.607c-0.17 0-0.309-0.139-0.309-0.309 0-1.194-1.203-2.168-2.681-2.168s-2.681 0.971-2.681 2.168c0 0.17-0.139 0.309-0.309 0.309s-0.309-0.139-0.309-0.309c0-1.537 1.481-2.786 3.3-2.786s3.3 1.249 3.3 2.786c0 0.17-0.136 0.309-0.309 0.309z"></path>
<path d="M13.325 11.052c-1.2 0-2.174-0.974-2.174-2.174s0.974-2.174 2.174-2.174c1.2 0 2.174 0.974 2.174 2.174s-0.974 2.174-2.174 2.174zM13.325 7.323c-0.858 0.002-1.554 0.697-1.555 1.555v0c0.002 0.858 0.697 1.554 1.555 1.555h0c0.858-0.002 1.554-0.697 1.555-1.555v-0c-0.002-0.858-0.697-1.554-1.555-1.555h-0zM21.721 13.607c-0.17 0-0.309-0.139-0.309-0.309 0-1.194-1.203-2.168-2.681-2.168-0.51 0-1.005 0.117-1.432 0.337-0.151 0.077-0.34 0.019-0.417-0.133s-0.019-0.337 0.133-0.417c0.496-0.255 1.083-0.405 1.704-0.405 0.003 0 0.006 0 0.009 0h-0c1.818 0 3.3 1.249 3.3 2.786 0.003 0.17-0.136 0.309-0.306 0.309z"></path>
<path d="M18.731 11.052c-1.2 0-2.174-0.974-2.174-2.174s0.974-2.174 2.174-2.174c1.2 0 2.174 0.974 2.174 2.174s-0.977 2.174-2.174 2.174zM18.731 7.323c-0.858 0.002-1.554 0.697-1.555 1.555v0c0.002 0.858 0.697 1.554 1.555 1.555h0c0.858-0.002 1.554-0.697 1.555-1.555v-0c-0.002-0.858-0.697-1.554-1.555-1.555h-0z"></path>
</svg>
